<?xml version="1.0" encoding="utf-8"?>
<!-- Generator: Adobe Illustrator 24.0.1, SVG Export Plug-In . SVG Version: 6.00 Build 0)  -->
<svg version="1.1" id="Layer_1" xmlns="http://www.w3.org/2000/svg" xmlns:xlink="http://www.w3.org/1999/xlink" x="0px" y="0px"
	 viewBox="0 0 885 230" style="enable-background:new 0 0 885 230;" xml:space="preserve">
<style type="text/css">
	.st0{fill:#F26F21;}
</style>
<g>
	<path d="M238.57,94.65h-81.66l41.33-54.98L177.2,12.95l-62.83,81.79H94.91l42.34-54.68L115.8,12.78l-77.6,99.69l77.24,100.32
		l21.52-26.34l-41.67-54.98h17.41l65.59,82.7l69.8-93.02V106L238.57,94.65z M177.7,159.69l-21.21-28.22h42.23L177.7,159.69z"/>
	<path class="st0" d="M234.34,94.65h-81.66l41.33-54.98l-21.04-26.72l-62.83,81.79H90.68l42.34-54.68l-21.45-27.28l-77.6,99.69
		l77.24,100.32l21.52-26.34l-41.67-54.98h17.41l65.59,82.7l69.8-93.02V106L234.34,94.65z M173.47,159.69l-21.21-28.22h42.23
		L173.47,159.69z"/>
	<polygon points="93.55,214.78 99.47,207.89 25.86,112.87 98.33,18.93 92.52,12.16 15.04,111.79 15.04,113.99 	"/>
	<g>
		<g>
			<path d="M266.93,67.19h18.92v26.87l19.82-26.87h25.17l-22.35,26.84l23.35,44.26h-23.3l-12.91-29.24l-9.78,11.89v17.35h-18.92
				V67.19z"/>
			<path d="M377.95,67.19h18.88v42.36c0,4.2-0.56,8.16-1.69,11.89c-1.13,3.73-2.9,7-5.3,9.8c-2.41,2.8-4.94,4.75-7.58,5.88
				c-3.68,1.58-8.09,2.38-13.24,2.38c-2.98,0-6.23-0.24-9.75-0.73c-3.52-0.48-6.47-1.45-8.83-2.89c-2.37-1.44-4.53-3.48-6.5-6.13
				c-1.96-2.65-3.31-5.38-4.03-8.19c-1.17-4.53-1.75-8.54-1.75-12.02V67.19h18.88v43.37c0,3.88,0.93,6.91,2.78,9.09
				c1.85,2.18,4.42,3.27,7.71,3.27c3.26,0,5.81-1.08,7.66-3.23c1.85-2.14,2.78-5.19,2.78-9.13V67.19z"/>
			<path d="M409.16,67.19h24.88l9.6,43.26l9.53-43.26h24.87v71.1h-15.5V84.07l-11.94,54.22h-14.03l-11.92-54.22v54.22h-15.5V67.19z"
				/>
			<path d="M527.75,126.56h-21.48l-2.99,11.74h-19.32l23.02-71.1h20.64l23.01,71.1h-19.81L527.75,126.56z M523.83,111.18
				l-6.76-25.56l-6.69,25.56H523.83z"/>
			<path d="M556.9,138.29v-71.1h31.53c5.85,0,10.32,0.58,13.41,1.75c3.09,1.16,5.58,3.32,7.48,6.47c1.89,3.15,2.84,6.99,2.84,11.52
				c0,3.94-0.72,7.35-2.17,10.21c-1.45,2.86-3.44,5.18-5.97,6.96c-1.62,1.13-3.83,2.07-6.64,2.81c2.24,0.87,3.88,1.75,4.91,2.62
				c0.7,0.58,1.71,1.83,3.04,3.74c1.32,1.91,2.2,3.38,2.65,4.41l9.16,20.6h-21.37l-10.12-21.73c-1.28-2.81-2.42-4.64-3.43-5.48
				c-1.36-1.1-2.91-1.65-4.63-1.65h-1.67v28.86H556.9z M575.9,96h7.97c0.86,0,2.53-0.32,5.01-0.97c1.25-0.29,2.28-1.03,3.08-2.23
				c0.79-1.2,1.18-2.57,1.18-4.12c0-2.3-0.63-4.06-1.88-5.29c-1.25-1.23-3.61-1.84-7.06-1.84h-8.31V96z"/>
			<path d="M623.93,67.19h18.96v71.1h-18.96V67.19z"/>
			<path d="M710.48,67.19h18.96v38.63c0,8.11-0.62,14.28-1.86,18.51c-1.24,4.24-3.73,7.82-7.48,10.76
				c-3.75,2.94-8.54,4.41-14.39,4.41c-6.18,0-10.97-0.97-14.37-2.91s-6.02-4.78-7.87-8.51s-2.94-8.35-3.28-13.85l18.09-2.86
				c0.03,3.14,0.26,5.46,0.71,6.98s1.2,2.75,2.26,3.69c0.72,0.61,1.75,0.92,3.09,0.92c2.12,0,3.67-0.91,4.66-2.74
				c0.99-1.82,1.48-4.9,1.48-9.23V67.19z"/>
			<path d="M739.68,102.79c0-11.61,2.78-20.64,8.35-27.11c5.57-6.47,13.32-9.7,23.27-9.7c10.19,0,18.04,3.18,23.56,9.53
				c5.51,6.35,8.27,15.25,8.27,26.7c0,8.31-1.2,15.12-3.61,20.44c-2.41,5.32-5.89,9.46-10.44,12.42s-10.23,4.44-17.02,4.44
				c-6.91,0-12.62-1.28-17.15-3.83c-4.53-2.55-8.19-6.6-11.01-12.12S739.68,111.1,739.68,102.79z M758.6,102.89
				c0,7.18,1.15,12.33,3.45,15.47c2.3,3.14,5.42,4.7,9.38,4.7c4.07,0,7.21-1.54,9.44-4.61s3.34-8.58,3.34-16.54
				c0-6.69-1.16-11.58-3.49-14.67c-2.33-3.09-5.48-4.63-9.46-4.63c-3.81,0-6.88,1.57-9.19,4.7
				C759.76,90.46,758.6,95.65,758.6,102.89z"/>
			<path d="M813.36,67.19h35.42c5.9,0,10.44,1.7,13.6,5.09s4.74,7.6,4.74,12.61c0,4.2-1.13,7.81-3.38,10.82
				c-1.5,2-3.7,3.59-6.6,4.75c4.4,1.23,7.64,3.34,9.71,6.33c2.07,2.99,3.11,6.75,3.11,11.28c0,3.69-0.74,7-2.21,9.94
				c-1.48,2.94-3.49,5.27-6.06,6.98c-1.59,1.07-3.98,1.84-7.18,2.33c-4.26,0.65-7.09,0.97-8.48,0.97h-32.66V67.19z M832.45,95.08
				h8.23c2.95,0,5.01-0.59,6.16-1.77c1.16-1.18,1.73-2.89,1.73-5.12c0-2.07-0.58-3.69-1.73-4.85c-1.16-1.16-3.17-1.75-6.04-1.75
				h-8.35V95.08z M832.45,123.02h9.65c3.26,0,5.56-0.67,6.89-2.01c1.34-1.34,2-3.14,2-5.41c0-2.1-0.66-3.79-1.98-5.07
				c-1.32-1.28-3.64-1.92-6.95-1.92h-9.61V123.02z"/>
		</g>
	</g>
	<path d="M472.57,163.35c0-0.25-0.04-0.51-0.12-0.78c-0.08-0.27-0.11-0.52-0.08-0.74c0.03-0.22,0.15-0.41,0.37-0.56
		c0.22-0.15,0.63-0.23,1.24-0.23c0.91,0,1.74,0.15,2.49,0.45c0.76,0.3,1.42,0.67,1.98,1.09c0.56,0.43,1,0.87,1.3,1.34
		c0.3,0.47,0.45,0.85,0.45,1.15c0,0.16-0.06,0.66-0.17,1.48c-0.11,0.82-0.25,1.86-0.43,3.09c-0.18,1.24-0.37,2.63-0.58,4.19
		c-0.21,1.55-0.4,3.12-0.58,4.7c-0.18,1.58-0.32,3.12-0.43,4.62c-0.11,1.5-0.16,2.83-0.14,4c0.01,1.17,0.1,2.11,0.25,2.82
		c0.15,0.72,0.41,1.07,0.76,1.07c0.6,0,1.41-0.34,2.41-1.03c1-0.69,2.08-1.68,3.24-2.99c1.15-1.31,2.32-2.9,3.5-4.78
		c1.18-1.88,2.25-4.03,3.22-6.43c0.96-2.41,1.75-5.04,2.35-7.92c0.6-2.87,0.91-5.96,0.91-9.26c0-1.32-0.28-2.46-0.82-3.42
		c-0.55-0.96-1.22-1.75-2.02-2.37c-0.8-0.62-1.65-1.08-2.56-1.38c-0.91-0.3-1.73-0.45-2.47-0.45c-2.45,0-4.58,0.25-6.39,0.76
		c-1.81,0.51-3.37,1.15-4.68,1.94c-1.31,0.78-2.39,1.64-3.26,2.56c-0.87,0.92-1.57,1.79-2.12,2.62c-0.55,0.82-0.97,1.55-1.26,2.16
		c-0.29,0.62-0.5,1-0.64,1.13c-0.22,0.22-0.62,0.41-1.22,0.56c-0.59,0.15-1.2,0.25-1.81,0.29c-0.62,0.04-1.17,0.01-1.65-0.08
		c-0.48-0.1-0.72-0.28-0.72-0.56c0-0.36,0.23-0.94,0.68-1.75c0.45-0.81,1.11-1.7,1.98-2.68c0.87-0.98,1.93-1.99,3.2-3.03
		c1.26-1.04,2.71-1.99,4.35-2.84c1.64-0.85,3.43-1.55,5.38-2.1c1.95-0.55,4.07-0.82,6.35-0.82c0.6,0,1.44,0.01,2.49,0.04
		c1.06,0.03,2.21,0.16,3.44,0.39c1.24,0.23,2.49,0.61,3.75,1.13c1.26,0.52,2.41,1.28,3.44,2.27c1.03,0.99,1.87,2.26,2.52,3.81
		c0.65,1.55,0.97,3.47,0.97,5.75c0,2.28-0.28,4.64-0.82,7.07c-0.55,2.43-1.32,4.81-2.31,7.13c-0.99,2.32-2.17,4.52-3.55,6.6
		c-1.37,2.08-2.9,3.9-4.58,5.46c-1.68,1.57-3.47,2.8-5.38,3.71c-1.91,0.91-3.88,1.36-5.92,1.36c-1.51,0-2.76-0.41-3.73-1.22
		c-0.98-0.81-1.75-1.9-2.33-3.26c-0.58-1.36-0.98-2.91-1.22-4.64c-0.23-1.73-0.36-3.52-0.37-5.36c-0.01-1.84,0.05-3.67,0.19-5.48
		c0.14-1.81,0.29-3.46,0.45-4.95c0.17-1.48,0.32-2.73,0.47-3.73C472.49,164.26,472.57,163.63,472.57,163.35z"/>
	<path d="M514.63,167.6c0.58,0,1.15,0.01,1.73,0.04c0.58,0.03,1.11,0.14,1.59,0.33c0.48,0.19,0.87,0.52,1.18,0.97
		c0.3,0.45,0.45,1.11,0.45,1.96c0,0.85-0.06,1.68-0.16,2.49c-0.11,0.81-0.28,1.53-0.52,2.14c-0.23,0.62-0.54,1.12-0.91,1.5
		c-0.37,0.39-0.82,0.58-1.34,0.58c-1.04,0-1.91-0.17-2.6-0.52c-0.69-0.34-1.03-0.75-1.03-1.22c0-0.22,0.03-0.58,0.1-1.07
		c0.07-0.49,0.14-0.99,0.23-1.48c0.11-0.58,0.23-1.21,0.37-1.9c-0.91,1.84-1.72,3.67-2.43,5.48c-0.3,0.8-0.6,1.62-0.91,2.47
		c-0.3,0.85-0.58,1.7-0.82,2.56c-0.25,0.85-0.46,1.69-0.64,2.52c-0.18,0.82-0.28,1.61-0.31,2.35c0.11,0.74,0.23,1.37,0.35,1.88
		c0.12,0.51,0.24,0.93,0.35,1.26c0.11,0.33,0.2,0.6,0.27,0.8c0.07,0.21,0.1,0.39,0.1,0.56c0,0.19-0.17,0.38-0.49,0.56
		c-0.33,0.18-0.75,0.23-1.26,0.17c-0.51-0.07-1.05-0.31-1.63-0.72c-0.58-0.41-1.12-1.12-1.63-2.12c-0.51-1-0.93-2.36-1.26-4.06
		c-0.33-1.7-0.49-3.89-0.49-6.56c0-1.04,0.03-2.17,0.1-3.38c0.07-1.21,0.18-2.33,0.33-3.36c0.15-1.03,0.35-1.89,0.6-2.58
		c0.25-0.69,0.55-1.03,0.91-1.03c1.4,0,2.43,0.31,3.07,0.93c0.65,0.62,0.97,1.37,0.97,2.25c0,0.41-0.04,0.86-0.12,1.34
		c-0.08,0.48-0.18,1-0.29,1.57c-0.11,0.56-0.21,1.18-0.29,1.83s-0.12,1.37-0.12,2.14c0,1.51,0.04,2.84,0.12,4
		c0.16-0.91,0.4-1.9,0.7-2.97c0.3-1.07,0.64-2.15,1.01-3.24c0.37-1.09,0.77-2.14,1.2-3.15c0.43-1.02,0.85-1.92,1.26-2.7
		c0.41-0.78,0.81-1.42,1.2-1.9C513.94,167.84,514.3,167.6,514.63,167.6z"/>
	<path d="M537.47,178.57c0.08-0.19,0.18-0.32,0.29-0.39c0.11-0.07,0.22-0.08,0.33-0.04c0.11,0.04,0.19,0.13,0.25,0.27
		c0.05,0.14,0.04,0.32-0.04,0.54c-0.06,0.14-0.17,0.5-0.33,1.09c-0.17,0.59-0.41,1.29-0.72,2.1c-0.32,0.81-0.72,1.67-1.2,2.58
		c-0.48,0.91-1.05,1.75-1.71,2.52c-0.66,0.77-1.42,1.4-2.29,1.9c-0.87,0.49-1.84,0.74-2.91,0.74c-1.43,0-2.71-0.29-3.86-0.87
		c-1.14-0.58-2.1-1.32-2.89-2.23c-0.78-0.91-1.38-1.9-1.79-2.99c-0.41-1.09-0.62-2.15-0.62-3.2c0-1.35,0.15-2.65,0.45-3.9
		c0.3-1.25,0.67-2.4,1.11-3.44c0.44-1.04,0.91-1.95,1.42-2.72c0.51-0.77,0.97-1.35,1.38-1.73c0.41-0.36,0.95-0.62,1.61-0.8
		c0.66-0.18,1.33-0.27,2-0.29c0.67-0.01,1.31,0.02,1.92,0.1c0.6,0.08,1.07,0.21,1.4,0.37c0.63,0.3,1.15,0.89,1.55,1.75
		c0.4,0.87,0.6,1.88,0.6,3.03c0,2.17-0.45,3.81-1.36,4.93c-0.91,1.11-2.03,1.67-3.38,1.67c-0.49,0-1.01-0.05-1.55-0.16
		c-0.54-0.11-1.02-0.23-1.46-0.37c-0.08,1.02,0,2.02,0.25,3.01c0.25,0.99,0.58,1.87,1.01,2.64c0.43,0.77,0.92,1.4,1.48,1.88
		c0.56,0.48,1.13,0.72,1.71,0.72c0.88,0,1.66-0.2,2.35-0.6c0.69-0.4,1.3-0.9,1.83-1.5c0.54-0.6,0.99-1.26,1.36-1.98
		c0.37-0.71,0.69-1.39,0.95-2.04c0.26-0.65,0.45-1.21,0.58-1.69C537.32,178.97,537.41,178.68,537.47,178.57z M529.72,171.27
		c-0.55,0-1.04,0.19-1.48,0.58c-0.44,0.39-0.82,0.89-1.15,1.53c-0.33,0.63-0.6,1.36-0.82,2.19c-0.22,0.82-0.38,1.69-0.49,2.6
		c0.88,0.38,1.64,0.47,2.27,0.27c0.63-0.21,1.15-0.56,1.57-1.07c0.41-0.51,0.71-1.11,0.91-1.81c0.19-0.7,0.29-1.37,0.29-2
		c0-0.63-0.09-1.17-0.27-1.61C530.34,171.49,530.07,171.27,529.72,171.27z"/>
	<path d="M559.24,176.13c0.05-0.22,0.15-0.38,0.29-0.47c0.14-0.1,0.27-0.14,0.39-0.12c0.12,0.01,0.22,0.09,0.29,0.23
		c0.07,0.14,0.08,0.33,0.02,0.58c-0.03,0.16-0.16,0.65-0.39,1.46c-0.23,0.81-0.54,1.79-0.93,2.93c-0.39,1.14-0.82,2.37-1.32,3.69
		c-0.49,1.32-1.02,2.56-1.59,3.71c-0.56,1.15-1.15,2.16-1.75,3.01c-0.6,0.85-1.2,1.37-1.77,1.57c-0.14,0.08-0.36,0.12-0.66,0.12
		c-0.66,0-1.23-0.2-1.71-0.6c-0.48-0.4-0.91-0.89-1.28-1.48c-0.37-0.59-0.68-1.24-0.93-1.94c-0.25-0.7-0.45-1.35-0.62-1.94
		c-0.16-0.59-0.29-1.09-0.37-1.48c-0.08-0.4-0.15-0.6-0.21-0.6c-0.06,0-0.14,0.16-0.27,0.47c-0.12,0.32-0.29,0.7-0.49,1.15
		c-0.21,0.45-0.45,0.96-0.72,1.51c-0.28,0.55-0.59,1.05-0.95,1.5c-0.36,0.45-0.76,0.84-1.22,1.15c-0.45,0.32-0.96,0.47-1.51,0.47
		c-0.82,0-1.59-0.14-2.31-0.43c-0.72-0.29-1.34-0.75-1.88-1.38c-0.54-0.63-0.96-1.45-1.26-2.45c-0.3-1-0.45-2.22-0.45-3.65
		c0-1.35,0.19-2.84,0.56-4.49c0.37-1.65,0.93-3.2,1.69-4.64c0.76-1.44,1.7-2.65,2.82-3.63c1.13-0.98,2.46-1.46,4-1.46
		c1.07,0,2.05,0.03,2.93,0.1c0.88,0.07,1.64,0.29,2.29,0.66c0.65,0.37,1.15,0.96,1.51,1.77c0.36,0.81,0.54,1.97,0.54,3.48
		c0,0.14-0.08,0.27-0.23,0.39c-0.15,0.12-0.32,0.21-0.52,0.25c-0.19,0.04-0.36,0.03-0.52-0.04c-0.15-0.07-0.23-0.21-0.23-0.43
		c0-0.25-0.02-0.6-0.06-1.07c-0.04-0.47-0.13-0.94-0.27-1.42c-0.14-0.48-0.32-0.9-0.56-1.26c-0.23-0.36-0.54-0.54-0.93-0.54
		c-1.02,0-1.99,0.42-2.91,1.26c-0.92,0.84-1.73,1.96-2.43,3.36c-0.7,1.4-1.26,3-1.67,4.78c-0.41,1.79-0.62,3.63-0.62,5.53
		c0,0.38,0.01,0.81,0.04,1.28c0.03,0.47,0.09,0.9,0.19,1.3c0.1,0.4,0.24,0.74,0.43,1.01c0.19,0.28,0.44,0.41,0.74,0.41
		c0.19,0,0.43-0.21,0.7-0.64c0.27-0.43,0.56-0.98,0.85-1.67c0.29-0.69,0.57-1.44,0.85-2.27c0.27-0.82,0.52-1.64,0.72-2.43
		c0.21-0.8,0.38-1.53,0.52-2.21c0.14-0.67,0.21-1.19,0.21-1.55c0-0.19,0.01-0.43,0.04-0.7c0.03-0.27,0.12-0.53,0.27-0.76
		c0.15-0.23,0.39-0.43,0.72-0.6c0.33-0.17,0.81-0.25,1.44-0.25c1.26,0,2.17,0.23,2.72,0.68c0.55,0.45,0.82,0.9,0.82,1.34v0.66
		c0.03,0.71,0.04,1.67,0.04,2.87c0,1.2,0.03,2.38,0.1,3.55c0.07,1.17,0.19,2.18,0.35,3.03c0.17,0.85,0.41,1.28,0.74,1.28
		c0.14,0,0.37-0.32,0.7-0.97c0.33-0.65,0.69-1.46,1.09-2.43c0.4-0.98,0.82-2.05,1.26-3.22c0.44-1.17,0.85-2.27,1.22-3.3
		c0.37-1.03,0.69-1.92,0.95-2.66C559.03,176.75,559.18,176.3,559.24,176.13z"/>
	<path d="M581.5,183.39c0,1.48,0.07,2.73,0.23,3.73c0.15,1,0.28,1.81,0.37,2.41c0.1,0.6,0.12,1.04,0.06,1.3
		c-0.05,0.26-0.3,0.39-0.74,0.39c-0.69,0-1.28-0.16-1.79-0.47c-0.51-0.32-0.95-0.74-1.32-1.28c-0.37-0.54-0.69-1.13-0.95-1.79
		c-0.26-0.66-0.47-1.35-0.64-2.06c-0.39-1.65-0.59-3.52-0.62-5.61c-0.63,1.98-1.24,3.72-1.81,5.24c-0.25,0.66-0.5,1.31-0.76,1.94
		c-0.26,0.63-0.52,1.19-0.78,1.67c-0.26,0.48-0.5,0.87-0.72,1.18c-0.22,0.3-0.41,0.45-0.58,0.45c-0.33,0-0.76-0.05-1.3-0.14
		c-0.54-0.1-1.06-0.3-1.57-0.62c-0.51-0.32-0.95-0.76-1.32-1.32c-0.37-0.56-0.56-1.3-0.56-2.21c0-0.6,0.05-1.43,0.17-2.47
		c0.11-1.04,0.23-2.16,0.35-3.34c0.12-1.18,0.25-2.38,0.39-3.61c0.14-1.22,0.24-2.33,0.31-3.32c0.07-0.99,0.08-1.79,0.02-2.41
		c-0.06-0.62-0.19-0.93-0.41-0.93c-0.41,0-0.8,0.38-1.15,1.13c-0.36,0.76-0.7,1.74-1.03,2.95c-0.33,1.21-0.65,2.56-0.95,4.06
		c-0.3,1.5-0.59,2.98-0.87,4.45c-0.28,1.47-0.54,2.86-0.78,4.16c-0.25,1.31-0.48,2.36-0.7,3.15c0.14,0.55,0.19,0.93,0.14,1.15
		c-0.04,0.22-0.32,0.33-0.85,0.33c-0.93,0-1.71-0.29-2.33-0.87c-0.62-0.58-1.11-1.33-1.46-2.25c-0.36-0.92-0.61-1.97-0.76-3.13
		c-0.15-1.17-0.25-2.33-0.31-3.48c-0.05-1.15-0.07-2.26-0.04-3.32c0.03-1.06,0.04-1.94,0.04-2.66c0-0.3-0.08-0.51-0.25-0.62
		c-0.16-0.11-0.25-0.32-0.25-0.62c0-0.3,0.3-0.49,0.91-0.56c0.6-0.07,1.27-0.03,2,0.12c0.73,0.15,1.39,0.42,2,0.8
		c0.6,0.39,0.91,0.88,0.91,1.48c0,1.21-0.08,2.5-0.23,3.88c-0.15,1.37-0.23,2.8-0.23,4.29c0,0.3,0,0.59,0,0.87
		c0,0.28,0.01,0.52,0.04,0.74c0.14-0.85,0.32-1.9,0.56-3.13c0.23-1.24,0.51-2.54,0.82-3.9c0.32-1.36,0.67-2.71,1.07-4.06
		c0.4-1.35,0.83-2.56,1.3-3.63c0.47-1.07,0.97-1.94,1.5-2.6c0.53-0.66,1.1-0.99,1.71-0.99c1.18,0,2.08,0.41,2.72,1.24
		c0.63,0.82,1.07,1.86,1.32,3.09c0.25,1.24,0.36,2.57,0.35,4c-0.01,1.43-0.08,2.76-0.18,4c-0.11,1.24-0.22,2.27-0.33,3.09
		c-0.11,0.82-0.12,1.24-0.04,1.24c0.08,0,0.22-0.25,0.41-0.74c0.19-0.49,0.43-1.11,0.7-1.86c0.28-0.74,0.59-1.55,0.95-2.43
		c0.36-0.88,0.72-1.69,1.09-2.43c0.37-0.74,0.74-1.36,1.11-1.86c0.37-0.49,0.73-0.74,1.09-0.74c0.52,0,1.05,0.04,1.58,0.12
		c0.53,0.08,1.02,0.23,1.44,0.43c0.42,0.21,0.77,0.49,1.05,0.85c0.27,0.36,0.41,0.81,0.41,1.36c0,0.69-0.08,1.54-0.25,2.56
		C581.59,180.82,581.5,182.02,581.5,183.39z"/>
	<path class="st0" d="M613.34,174.57c0.93,0.3,1.97,0.76,3.11,1.36c1.14,0.61,2.15,1.38,3.03,2.33c0.88,0.95,1.53,2.07,1.96,3.36
		c0.43,1.29,0.39,2.75-0.1,4.37c-0.25,0.88-0.78,1.81-1.61,2.8c-0.82,0.99-1.84,1.96-3.03,2.91c-1.2,0.95-2.52,1.85-3.98,2.7
		c-1.46,0.85-2.96,1.6-4.51,2.25c-1.55,0.65-3.09,1.16-4.62,1.55c-1.53,0.38-2.95,0.58-4.27,0.58c-1.04,0-2.04-0.08-2.99-0.25
		c-0.95-0.16-1.77-0.43-2.47-0.8c-0.7-0.37-1.26-0.85-1.67-1.42c-0.41-0.58-0.62-1.26-0.62-2.06c0-0.6,0.46-1.29,1.38-2.04
		c0.92-0.76,2.13-1.55,3.63-2.37c1.5-0.82,3.21-1.65,5.13-2.47c1.92-0.82,3.88-1.62,5.88-2.39c1.99-0.77,3.95-1.5,5.88-2.19
		c1.92-0.69,3.64-1.28,5.15-1.77c-0.49-0.44-1.18-0.8-2.04-1.09s-1.82-0.53-2.87-0.72c-1.04-0.19-2.12-0.33-3.24-0.41
		c-1.11-0.08-2.15-0.15-3.11-0.21c-0.96-0.05-1.79-0.1-2.47-0.14c-0.69-0.04-1.14-0.09-1.36-0.14c-0.22-0.05-0.4-0.16-0.54-0.33
		c-0.14-0.17-0.28-0.34-0.41-0.54c-0.06,0.28-0.08,0.54-0.08,0.78s0,0.51,0,0.78c0,1.26,0.08,2.32,0.23,3.18
		c0.15,0.85,0.27,1.54,0.37,2.06c0.1,0.52,0.11,0.89,0.04,1.11c-0.07,0.22-0.34,0.33-0.8,0.33c-0.44,0-0.9-0.34-1.38-1.03
		c-0.48-0.69-0.91-1.53-1.3-2.54c-0.38-1-0.71-2.08-0.97-3.24c-0.26-1.15-0.39-2.2-0.39-3.13c0-1.81,0.16-3.68,0.49-5.61
		c0.33-1.92,0.73-3.68,1.2-5.26c0.47-1.58,0.95-2.88,1.46-3.9c0.51-1.02,0.95-1.53,1.34-1.53c0.49,0,1.02,0.06,1.57,0.17
		c0.55,0.11,1.06,0.27,1.53,0.47c0.47,0.21,0.85,0.47,1.15,0.8c0.3,0.33,0.45,0.7,0.45,1.11c0,0.25-0.11,0.63-0.33,1.13
		c-0.22,0.51-0.51,1.12-0.87,1.83c-0.36,0.72-0.74,1.53-1.15,2.43s-0.8,1.91-1.15,3.01c1.35-0.38,2.69-1.04,4.04-1.96
		c1.35-0.92,2.56-1.95,3.63-3.09c1.07-1.14,1.95-2.33,2.64-3.57c0.69-1.24,1.06-2.36,1.11-3.36c0.06-1-0.28-1.83-0.99-2.49
		c-0.72-0.66-1.94-0.99-3.67-0.99c-2.14,0-4.11,0.34-5.9,1.03c-1.79,0.69-3.4,1.55-4.82,2.58c-1.43,1.03-2.69,2.15-3.77,3.36
		c-1.09,1.21-2.01,2.33-2.78,3.36c-0.77,1.03-1.38,1.89-1.83,2.58c-0.45,0.69-0.76,1.03-0.93,1.03c-0.63,0-0.85-0.4-0.66-1.2
		c0.19-0.8,0.71-1.79,1.55-2.99c0.84-1.2,1.95-2.49,3.32-3.9c1.38-1.4,2.91-2.7,4.6-3.9c1.69-1.2,3.49-2.19,5.4-2.99
		c1.91-0.8,3.83-1.2,5.75-1.2c2.12,0,3.72,0.35,4.8,1.05c1.09,0.7,1.77,1.62,2.04,2.76c0.27,1.14,0.21,2.45-0.21,3.92
		c-0.41,1.47-1.06,2.97-1.94,4.49c-0.88,1.53-1.95,3.02-3.2,4.47c-1.25,1.46-2.56,2.75-3.94,3.88c0.91,0.22,1.81,0.44,2.7,0.66
		C611.82,174.17,612.62,174.37,613.34,174.57z M619.31,183.1c0.08-0.22,0.11-0.44,0.08-0.66c-0.03-0.22-0.07-0.44-0.12-0.66
		c-1.21,0.44-2.56,0.94-4.04,1.5c-1.48,0.56-3.01,1.15-4.58,1.77s-3.13,1.25-4.68,1.9c-1.55,0.65-3,1.27-4.33,1.88
		c-1.33,0.6-2.51,1.17-3.53,1.69c-1.02,0.52-1.78,0.98-2.29,1.38c-0.51,0.4-0.71,0.71-0.6,0.95c0.11,0.23,0.62,0.35,1.53,0.35
		c1.37,0,2.86-0.16,4.45-0.47c1.59-0.32,3.2-0.73,4.8-1.24s3.17-1.11,4.68-1.79c1.51-0.69,2.87-1.41,4.08-2.16
		c1.21-0.76,2.22-1.51,3.03-2.27C618.62,184.51,619.12,183.79,619.31,183.1z"/>
	<path class="st0" d="M630.4,166.07c0,0.63-0.2,1.07-0.6,1.3c-0.4,0.23-0.89,0.33-1.48,0.29c-0.59-0.04-1.24-0.19-1.94-0.43
		c-0.7-0.25-1.35-0.55-1.94-0.91c-0.59-0.36-1.09-0.74-1.48-1.13c-0.4-0.4-0.6-0.78-0.6-1.13c0-0.52,0.1-0.92,0.31-1.2
		c0.21-0.27,0.48-0.47,0.82-0.6c0.34-0.12,0.75-0.19,1.22-0.21c0.47-0.01,0.96-0.02,1.48-0.02c0.49,0,1,0.14,1.5,0.41
		c0.51,0.28,0.96,0.62,1.36,1.03c0.4,0.41,0.72,0.85,0.97,1.32C630.28,165.26,630.4,165.69,630.4,166.07z M635.06,178.94
		c0.08-0.25,0.18-0.42,0.29-0.52c0.11-0.1,0.22-0.12,0.33-0.08c0.11,0.04,0.19,0.12,0.25,0.25c0.06,0.12,0.07,0.27,0.04,0.43
		c-0.08,0.33-0.24,0.85-0.47,1.55c-0.23,0.7-0.52,1.48-0.87,2.35c-0.34,0.87-0.73,1.76-1.15,2.68c-0.43,0.92-0.87,1.76-1.34,2.52
		c-0.47,0.76-0.95,1.37-1.44,1.86c-0.49,0.48-0.98,0.72-1.44,0.72h-0.08c-1.35,0-2.42-0.42-3.22-1.26c-0.8-0.84-1.4-1.86-1.81-3.07
		c-0.41-1.21-0.68-2.47-0.8-3.77c-0.12-1.31-0.19-2.44-0.19-3.4c0-1.18,0.02-2.2,0.06-3.05c0.04-0.85,0.1-1.57,0.17-2.14
		c0.07-0.58,0.12-1.05,0.16-1.42c0.04-0.37,0.06-0.68,0.06-0.93c0-0.44,0.27-0.69,0.8-0.76c0.54-0.07,1.13,0.01,1.79,0.23
		c0.66,0.22,1.26,0.54,1.79,0.97c0.54,0.43,0.8,0.9,0.8,1.42c0,0.39-0.01,0.81-0.04,1.28c-0.03,0.47-0.06,0.96-0.08,1.48
		c-0.03,0.52-0.06,1.04-0.08,1.55c-0.03,0.51-0.04,0.98-0.04,1.42c0,2.23,0.17,4.04,0.51,5.44c0.34,1.4,0.69,2.5,1.05,3.3
		c0.27-0.14,0.58-0.44,0.93-0.91c0.34-0.47,0.69-1,1.05-1.61c0.36-0.6,0.7-1.25,1.03-1.94c0.33-0.69,0.63-1.34,0.91-1.96
		c0.27-0.62,0.5-1.16,0.68-1.63C634.89,179.46,635.01,179.13,635.06,178.94z"/>
	<path class="st0" d="M651.43,195.18c1.26,0.58,2.25,1.37,2.95,2.39c0.7,1.02,1.2,2.06,1.48,3.13c0.29,1.07,0.41,2.09,0.37,3.05
		c-0.04,0.96-0.17,1.69-0.39,2.19c-0.44,0.93-1.27,1.94-2.49,3.03c-1.22,1.09-2.68,2.14-4.37,3.18c-1.69,1.03-3.55,1.99-5.57,2.87
		c-2.02,0.88-4.05,1.57-6.08,2.06c-2.03,0.49-4,0.75-5.9,0.76c-1.9,0.01-3.57-0.32-5.03-1.01c-0.47-0.22-1.06-0.63-1.77-1.24
		c-0.71-0.61-1.4-1.3-2.04-2.08c-0.65-0.78-1.15-1.61-1.53-2.47c-0.37-0.87-0.43-1.66-0.19-2.37c0.28-0.77,0.81-1.44,1.61-2.02
		c0.8-0.58,1.71-1.05,2.74-1.42c1.03-0.37,2.1-0.67,3.22-0.89c1.11-0.22,2.12-0.36,3.03-0.43c0.91-0.07,1.64-0.06,2.21,0.02
		s0.8,0.21,0.72,0.37c-0.08,0.17-0.36,0.32-0.85,0.45c-0.48,0.14-1.07,0.28-1.75,0.43c-0.69,0.15-1.44,0.34-2.27,0.56
		c-0.82,0.22-1.62,0.49-2.39,0.82c-0.77,0.33-1.48,0.74-2.12,1.24c-0.65,0.49-1.13,1.09-1.46,1.77c-0.36,0.74-0.25,1.34,0.33,1.79
		c0.58,0.45,1.46,0.78,2.64,0.99c1.18,0.21,2.6,0.28,4.27,0.23c1.66-0.06,3.42-0.23,5.26-0.52c1.84-0.29,3.7-0.69,5.59-1.22
		c1.88-0.52,3.63-1.14,5.26-1.86c1.62-0.72,3.04-1.54,4.25-2.47c1.21-0.94,2.07-1.95,2.6-3.05c0.33-0.72,0.34-1.47,0.04-2.27
		c-0.3-0.8-1.02-1.46-2.14-1.98c-1.51-0.72-3.13-1.13-4.85-1.24c-1.72-0.11-3.36-0.07-4.93,0.12c-0.14,0.22-0.26,0.33-0.37,0.33
		c-0.16,0-0.3-0.08-0.41-0.25c-0.93,0.14-1.81,0.3-2.64,0.47c-0.82,0.18-1.55,0.34-2.19,0.47c-0.63,0.14-1.15,0.25-1.57,0.33
		c-0.41,0.08-0.67,0.1-0.78,0.04c-0.17-0.08-0.34-0.25-0.54-0.52c-0.19-0.26-0.36-0.59-0.51-0.99c-0.15-0.4-0.23-0.83-0.25-1.3
		c-0.01-0.47,0.09-0.94,0.31-1.4c0.36-0.74,1.22-1.26,2.58-1.57c1.36-0.3,2.92-0.45,4.68-0.45v-0.24c0-0.27,0-0.56,0-0.87
		c0-0.31,0.01-0.65,0.04-1.03h-0.04c-0.72,0-1.48-0.19-2.31-0.56s-1.58-0.97-2.27-1.8c-0.69-0.83-1.26-1.89-1.71-3.18
		c-0.45-1.29-0.68-2.86-0.68-4.71c0-0.96,0.15-1.99,0.45-3.08c0.3-1.09,0.69-2.16,1.15-3.22c0.47-1.06,1-2.09,1.59-3.08
		c0.59-0.99,1.18-1.86,1.77-2.6c0.59-0.74,1.15-1.33,1.69-1.78c0.54-0.44,0.98-0.66,1.34-0.66c0.88,0,1.59,0.16,2.12,0.47
		c0.54,0.32,0.95,0.69,1.24,1.13c0.29,0.44,0.47,0.87,0.56,1.3c0.08,0.43,0.12,0.75,0.12,0.97c0,0.17-0.19,0.4-0.58,0.7
		c-0.39,0.3-0.87,0.72-1.44,1.26c-0.58,0.54-1.21,1.18-1.9,1.94c-0.69,0.76-1.32,1.65-1.9,2.68c-0.58,1.03-1.06,2.21-1.44,3.55
		c-0.39,1.33-0.58,2.84-0.58,4.51c0,1.7,0.29,2.87,0.87,3.5c0.58,0.63,1.26,0.84,2.06,0.62c0.03-0.6,0.08-1.2,0.14-1.79
		c0.07-0.59,0.13-1.11,0.19-1.57c0.05-0.45,0.12-0.82,0.21-1.09c0.08-0.27,0.17-0.41,0.25-0.41c0.47,0,0.86,0.26,1.18,0.78
		c0.32,0.52,0.57,1.18,0.76,1.98c0.91-1.15,1.69-2.67,2.35-4.56c0.66-1.88,0.99-4.06,0.99-6.54c0-0.25,0.14-0.39,0.41-0.43
		c0.27-0.04,0.58,0.03,0.93,0.21c0.34,0.18,0.65,0.49,0.93,0.95c0.27,0.45,0.41,1.07,0.41,1.84c0,0.6-0.13,1.42-0.39,2.45
		c-0.26,1.03-0.64,2.1-1.13,3.22c-0.49,1.11-1.1,2.2-1.81,3.26c-0.71,1.06-1.53,1.92-2.43,2.58c0,0.47-0.03,1-0.08,1.59
		c-0.06,0.59-0.12,1.2-0.21,1.84c0.85,0.08,1.69,0.18,2.52,0.29c0.82,0.11,1.61,0.25,2.35,0.41c0.74,0.17,1.42,0.34,2.02,0.52
		C650.51,194.8,651.02,194.99,651.43,195.18z"/>
	<path class="st0" d="M669.99,175.8c0.03,1.35,0.15,2.47,0.37,3.38c0.22,0.91,0.4,1.64,0.54,2.19c0.14,0.55,0.16,0.95,0.08,1.2
		c-0.08,0.25-0.41,0.37-0.99,0.37c-1.04,0.03-1.9-0.36-2.56-1.15c-0.66-0.8-1.19-1.86-1.59-3.18c-0.4-1.32-0.67-2.84-0.82-4.56
		c-0.15-1.72-0.23-3.49-0.23-5.32c0-1.83,0.05-3.63,0.14-5.42c0.1-1.79,0.21-3.42,0.33-4.89c0.12-1.47,0.24-2.71,0.35-3.71
		c0.11-1,0.17-1.63,0.17-1.88c0-0.25,0.01-0.47,0.02-0.66c0.01-0.19,0.08-0.35,0.21-0.47c0.12-0.12,0.32-0.23,0.58-0.31
		c0.26-0.08,0.63-0.12,1.09-0.12c0.47-0.03,0.93,0.06,1.4,0.27c0.47,0.21,0.89,0.47,1.26,0.8s0.67,0.68,0.89,1.05
		c0.22,0.37,0.33,0.72,0.33,1.05c0,0.14-0.04,0.6-0.12,1.4c-0.08,0.8-0.19,1.79-0.31,2.99c-0.12,1.2-0.26,2.54-0.41,4.02
		c-0.15,1.48-0.28,3-0.39,4.54c-0.11,1.54-0.2,3.04-0.27,4.49C669.98,173.34,669.96,174.65,669.99,175.8z M672.25,189.7
		c0,0.55-0.18,0.93-0.54,1.15c-0.36,0.22-0.8,0.31-1.34,0.27c-0.54-0.04-1.12-0.17-1.75-0.39c-0.63-0.22-1.22-0.49-1.75-0.82
		c-0.54-0.33-0.98-0.67-1.34-1.03c-0.36-0.36-0.54-0.7-0.54-1.03c0-0.47,0.09-0.82,0.27-1.07c0.18-0.25,0.42-0.43,0.72-0.54
		c0.3-0.11,0.67-0.17,1.09-0.19c0.43-0.01,0.87-0.02,1.34-0.02c0.44,0,0.89,0.12,1.36,0.37c0.47,0.25,0.88,0.56,1.24,0.93
		c0.36,0.37,0.65,0.77,0.89,1.2C672.14,188.95,672.25,189.34,672.25,189.7z"/>
</g>
</svg>
